<svg xmlns="http://www.w3.org/2000/svg" width="123.021" height="78.537" viewBox="0 0 123.021 78.537">
  <g id="Group_87" data-name="Group 87" transform="translate(-1741.418 -4461.463)">
    <g id="Group_87-2" data-name="Group 87" transform="translate(1741.935 4461.463)">
      <path id="Path_138" data-name="Path 138" d="M48.584,46.9H41.616V39.2H62.069v7.7H55.136V89.951H48.584Z" transform="translate(-41.616 -39.182)" fill="#2d2b2c"/>
      <path id="Path_139" data-name="Path 139" d="M57.433,68.445V89.951H50.88V39.2h6.552V60.75h7.9V39.2h6.552V89.951H65.336V68.445Z" transform="translate(-25.159 -39.182)" fill="#2d2b2c"/>
      <path id="Path_140" data-name="Path 140" d="M70.888,39.2q5.477,0,8.041,3.523,2.253,3.078,2.254,8.585v7.372a12.814,12.814,0,0,1-3.5,9.112l4.853,22.156H75.447l-3.97-19.116H67.109V89.951H60.557V39.2ZM74.8,51.433q0-4.415-3.743-4.415H67.109V63.261H71.06a3.352,3.352,0,0,0,2.652-1.3A4.686,4.686,0,0,0,74.8,58.844Z" transform="translate(-7.969 -39.182)" fill="#2d2b2c"/>
      <path id="Path_141" data-name="Path 141" d="M70.5,89.984V39.2h18.65v7.7h-12.1V60.742h12.1v7.7h-12.1V82.289h12.1v7.7Z" transform="translate(9.686 -39.195)" fill="#2d2b2c"/>
      <path id="Path_142" data-name="Path 142" d="M78.836,89.984V39.2h18.65v7.7h-12.1V60.742h12.1v7.7h-12.1V82.289h12.1v7.7Z" transform="translate(24.503 -39.195)" fill="#2d2b2c"/>
    </g>
    <line id="Line_19" data-name="Line 19" x1="123.02" transform="translate(1741.42 4519.736)" fill="none" stroke="#59595c" stroke-miterlimit="10" stroke-width="0.75"/>
    <g id="Group_88" data-name="Group 88" transform="translate(1741.418 4525.893)">
      <g id="Group_31" data-name="Group 31">
        <path id="Path_143" data-name="Path 143" d="M44.7,62.464a3.172,3.172,0,0,1,2.416.955,3.322,3.322,0,0,1,.833,2.329v2A3.2,3.2,0,0,1,47,70.074a3.1,3.1,0,0,1-2.3.966h-1.2v5.181H41.43V62.464Zm1.241,3.318a1.186,1.186,0,0,0-.325-.869,1.155,1.155,0,0,0-.863-.328H43.507v4.4h1.249a1.138,1.138,0,0,0,.841-.35,1.168,1.168,0,0,0,.347-.847Z" transform="translate(-41.43 -62.289)" fill="#2d2b2c"/>
        <path id="Path_144" data-name="Path 144" d="M47.647,62.464a3.169,3.169,0,0,1,2.549.955,3.482,3.482,0,0,1,.714,2.329v2A3.214,3.214,0,0,1,49.8,70.216l1.535,6.006H49.093l-1.258-5.181H46.45v5.181H44.376V62.464Zm1.241,3.318a1.052,1.052,0,0,0-1.186-1.2H46.45v4.4H47.7a1.138,1.138,0,0,0,.841-.35,1.165,1.165,0,0,0,.344-.847Z" transform="translate(-36.197 -62.289)" fill="#2d2b2c"/>
        <path id="Path_145" data-name="Path 145" d="M50.679,62.4a3.289,3.289,0,0,1,3.3,3.293V73.2a3.289,3.289,0,1,1-6.577,0v-7.51A3.289,3.289,0,0,1,50.679,62.4m1.133,3.251a1.18,1.18,0,0,0-1.186-1.186,1.161,1.161,0,0,0-.847.344,1.138,1.138,0,0,0-.35.841v7.53a1.138,1.138,0,0,0,.35.841,1.161,1.161,0,0,0,.847.344,1.18,1.18,0,0,0,1.186-1.186Z" transform="translate(-30.83 -62.401)" fill="#2d2b2c"/>
        <path id="Path_146" data-name="Path 146" d="M56.944,72.936a3.192,3.192,0,0,1-.955,2.327,3.127,3.127,0,0,1-2.307.966h-3.26V62.46h3.26a3.132,3.132,0,0,1,2.313.966,3.2,3.2,0,0,1,.95,2.318ZM52.5,74.177h1.252a1.109,1.109,0,0,0,.836-.358,1.177,1.177,0,0,0,.339-.839v-7.2a1.165,1.165,0,0,0-.344-.847,1.131,1.131,0,0,0-.83-.35H52.5Z" transform="translate(-25.456 -62.296)" fill="#2d2b2c"/>
        <path id="Path_147" data-name="Path 147" d="M56.7,76.372A3.261,3.261,0,0,1,53.423,73.1V62.465h2.032V73.079a1.138,1.138,0,0,0,.35.841,1.161,1.161,0,0,0,.847.344,1.18,1.18,0,0,0,1.186-1.186V62.465H60V73.1a3.122,3.122,0,0,1-.966,2.327,3.21,3.21,0,0,1-2.329.944" transform="translate(-20.125 -62.287)" fill="#2d2b2c"/>
        <path id="Path_148" data-name="Path 148" d="M59.737,76.494a3.28,3.28,0,0,1-3.293-3.282V65.7a3.289,3.289,0,1,1,6.577,0v1.571H60.867V65.657a1.194,1.194,0,0,0-1.2-1.194,1.136,1.136,0,0,0-.838.35,1.162,1.162,0,0,0-.347.844V73.19a1.18,1.18,0,0,0,1.186,1.186,1.161,1.161,0,0,0,.847-.344,1.138,1.138,0,0,0,.35-.841v-1.9h2.155v1.921a3.28,3.28,0,0,1-3.285,3.282" transform="translate(-14.758 -62.387)" fill="#2d2b2c"/>
        <path id="Path_149" data-name="Path 149" d="M61.533,64.55H59.326V62.464H65.8V64.55h-2.2v11.67H61.533Z" transform="translate(-9.638 -62.288)" fill="#2d2b2c"/>
        <rect id="Rectangle_28" data-name="Rectangle 28" width="2.075" height="13.756" transform="translate(57.835 0.176)" fill="#2d2b2c"/>
        <path id="Path_150" data-name="Path 150" d="M66.95,62.4a3.289,3.289,0,0,1,3.3,3.293V73.2a3.289,3.289,0,1,1-6.577,0v-7.51A3.289,3.289,0,0,1,66.95,62.4m1.133,3.251A1.18,1.18,0,0,0,66.9,64.467a1.161,1.161,0,0,0-.847.344,1.138,1.138,0,0,0-.35.841v7.53a1.138,1.138,0,0,0,.35.841,1.161,1.161,0,0,0,.847.344,1.18,1.18,0,0,0,1.186-1.186Z" transform="translate(-1.925 -62.401)" fill="#2d2b2c"/>
        <path id="Path_151" data-name="Path 151" d="M69.023,62.461l2.754,9.252V62.461h2.075V76.228H71.622l-2.854-8.816v8.816H66.693V62.461Z" transform="translate(3.449 -62.295)" fill="#2d2b2c"/>
      </g>
      <g id="Group_32" data-name="Group 32" transform="translate(83.367 0.006)">
        <path id="Path_152" data-name="Path 152" d="M73.532,70.393v5.83H71.456V62.466h2.075v5.841h2.5V62.466H78.11V76.223H76.035v-5.83Z" transform="translate(-71.456 -62.29)" fill="#2d2b2c"/>
        <path id="Path_153" data-name="Path 153" d="M77.795,62.4a3.289,3.289,0,0,1,3.3,3.293v7.51a3.289,3.289,0,1,1-6.577,0V65.7A3.289,3.289,0,0,1,77.795,62.4m1.133,3.251a1.18,1.18,0,0,0-1.188-1.186,1.159,1.159,0,0,0-.844.344,1.141,1.141,0,0,0-.353.841v7.53a1.141,1.141,0,0,0,.353.841,1.159,1.159,0,0,0,.844.344,1.18,1.18,0,0,0,1.188-1.186Z" transform="translate(-66.026 -62.403)" fill="#2d2b2c"/>
        <path id="Path_154" data-name="Path 154" d="M80.816,76.374A3.261,3.261,0,0,1,77.534,73.1V62.467h2.03V73.081a1.141,1.141,0,0,0,.353.841,1.159,1.159,0,0,0,.844.344,1.18,1.18,0,0,0,1.188-1.186V62.467h2.163V73.1a3.132,3.132,0,0,1-.966,2.327,3.211,3.211,0,0,1-2.329.944" transform="translate(-60.66 -62.289)" fill="#2d2b2c"/>
        <path id="Path_155" data-name="Path 155" d="M87.382,72.909a3.88,3.88,0,0,1-.747,2.46,2.71,2.71,0,0,1-1.427.977,3.9,3.9,0,0,1-1.155.153,3.258,3.258,0,0,1-2.018-.6,3.384,3.384,0,0,1-1.061-1.347,5.463,5.463,0,0,1-.455-1.946l1.977-.144a3.016,3.016,0,0,0,.636,1.744,1.06,1.06,0,0,0,.858.386,1.28,1.28,0,0,0,1.086-.669,1.673,1.673,0,0,0,.208-.913,2.524,2.524,0,0,0-.78-1.7q-.612-.583-1.844-1.746A7.772,7.772,0,0,1,81.2,67.767a4.139,4.139,0,0,1-.464-1.935A3.365,3.365,0,0,1,82,62.986a3.133,3.133,0,0,1,1.932-.583,3.529,3.529,0,0,1,1.9.494,2.869,2.869,0,0,1,.994,1.077,3.955,3.955,0,0,1,.455,1.591l-1.988.361a2.383,2.383,0,0,0-.483-1.316,1.008,1.008,0,0,0-.822-.342.955.955,0,0,0-.869.505,1.953,1.953,0,0,0-.242,1.011,3.035,3.035,0,0,0,.814,1.921,6.888,6.888,0,0,0,.922.877q.725.6.955.847a6.9,6.9,0,0,1,1.186,1.516,5.527,5.527,0,0,1,.319.647,3.817,3.817,0,0,1,.308,1.316" transform="translate(-55.357 -62.403)" fill="#2d2b2c"/>
        <path id="Path_156" data-name="Path 156" d="M83.611,76.23V62.463h5.906v2.086H85.686V68.3h2.8v2.086h-2.8v3.754h3.831V76.23Z" transform="translate(-49.864 -62.297)" fill="#2d2b2c"/>
      </g>
    </g>
  </g>
</svg>
