<svg xmlns="http://www.w3.org/2000/svg" width="183.959" height="141.162" viewBox="0 0 183.959 141.162">
  <g id="Group_72" data-name="Group 72" style="mix-blend-mode: multiply;isolation: isolate">
    <path id="Path_193" data-name="Path 193" d="M100.825,379.663h1.76v-9.542h-1.76Zm8.6,0h7.318v-1.675h-5.558v-2.381h3.872v-1.672h-3.872V371.8h5.558v-1.675h-7.318Zm-22.286,0H88.9v-3.006h2.781a3.272,3.272,0,1,0,0-6.536H87.142v9.542ZM88.9,371.8h2.645a1.606,1.606,0,1,1,0,3.187H88.9Zm40.946,5.072a3.263,3.263,0,0,1-2.643,1.32,3.294,3.294,0,0,1,0-6.587,3.108,3.108,0,0,1,2.613,1.379l1.456-1.1a5.1,5.1,0,0,0-4.07-1.957,4.968,4.968,0,1,0,0,9.931,5.1,5.1,0,0,0,4.07-1.958Zm7.486,2.795h7.318v-1.675h-5.558v-2.381h3.872v-1.672h-3.872V371.8h5.558v-1.675h-7.318Zm12.537-1.568a5.635,5.635,0,0,0,4.086,1.763c2.184,0,4.206-1.2,4.206-3.19,0-3.966-6.15-1.816-6.15-3.966,0-.576.547-1.285,2.005-1.285a3.441,3.441,0,0,1,2.581,1.139l1.307-1.173a5.129,5.129,0,0,0-3.8-1.456c-2.171,0-3.95,1.173-3.95,2.872,0,3.888,6.152,1.837,6.152,3.968,0,.909-.941,1.405-2.28,1.421a3.918,3.918,0,0,1-2.824-1.291Zm22.828,1.568h5.435a2.72,2.72,0,0,0,2.933-2.765,2.333,2.333,0,0,0-1.7-2.323,2,2,0,0,0,1.168-1.9,2.514,2.514,0,0,0-2.749-2.552H172.7Zm1.763-7.867h3.128a1.075,1.075,0,1,1,0,2.139h-3.128Zm0,3.811h3.478a1.2,1.2,0,1,1,0,2.381h-3.478Zm14.731,4.056h1.757v-4.208l3.419-5.334h-2.035l-2.264,3.712-2.261-3.712h-2.035l3.419,5.334Zm19.169,0h1.76v-4.056h3.872v-1.672h-3.872V371.8h5.56v-1.675h-7.32Zm52.995,0h1.76v-4.056h4.358v4.056h1.763v-9.542h-1.763v3.814h-4.358v-3.814h-1.76Zm-42.506,0h1.885l.723-1.792h4.04l.733,1.792h1.9l-4.04-9.542h-1.061Zm3.248-3.371,1.4-3.419,1.381,3.419Zm11.643,3.371H235.5v-3.006h2.152l1.992,3.006h2.216l-2.384-3.4a3.04,3.04,0,0,0,2.235-2.872,3.186,3.186,0,0,0-3.435-3.27h-4.539ZM235.5,371.8h2.64a1.606,1.606,0,1,1,0,3.187H235.5Zm10.958,7.867h1.883l.728-1.792h4.04l.731,1.792h1.9l-4.043-9.542h-1.061Zm3.251-3.371,1.4-3.419,1.381,3.419Z" transform="translate(-86.209 -238.696)" fill="#5f1970" fill-rule="evenodd"/>
    <path id="Path_194" data-name="Path 194" d="M239.677,378.732c.139,6.1.867,11.283-4.488,6.51-.941.072-.072,5.206-3.646,2.645a98.171,98.171,0,0,1-9.579-7.9c-4.811,4.728-9.118,9.763-11.539,14.363-5.187,8.542-3.515,16.734,5.592,19.593,26.385,3.566,48.883-16.966,51.245-23.569,1.363-3.8.483-8.176-3.576-12.921-1.536-1.795-6.867-2.563-3.758-3.864a4.382,4.382,0,0,1,.853-.1c7.976-.331,11.6,11.713,9.278,18.188-2.947,8.232-28.575,29.521-53.971,25.327a15.58,15.58,0,0,1-3.254-1.16c-9.558-4.864-10.27-13.835-5.56-23.121,0,0,.485-.933,1.6-2.595a85.074,85.074,0,0,1,10.539-12.6,92.9,92.9,0,0,1-9.547-11.022,17.969,17.969,0,0,1-3.251-9.043C206.56,343,227.9,335.823,239.631,334.386c7.176-1.384,15.947-.528,15.3,8.534a10.477,10.477,0,0,1-.368,2.157c-2.952,10.886-11.638,17.777-14.425,19.748a160.273,160.273,0,0,0-16,13.083,80.118,80.118,0,0,0,7.392,5.219c1.173-3.459,1.707-5.12,4.568-1.968l-.072-3.083C235.767,374.966,239.618,376.369,239.677,378.732Zm-18.308-3.12A148.473,148.473,0,0,1,238.1,361.934c2.608-1.848,10.465-8.176,13.067-17.862a7.76,7.76,0,0,0,.232-1.405c.453-6.326-6.862-5.622-11.222-4.776a59.405,59.405,0,0,0-8.558,1.824c-7.979,2.28-22,7.456-21.966,17.689a13.369,13.369,0,0,0,1.008,5.1C212.529,366.947,216.769,371.614,221.369,375.612Zm-25.932,31.244v2.195l-.357,1.707-.427,2.437c-.328,1.886-3.035,2.395-3.117.48a10.416,10.416,0,0,0-.376-2.595,3.151,3.151,0,0,1-.093-1.571l.064-3.328a2.006,2.006,0,0,1,1.392-1.813C193.672,404.131,195.437,405.8,195.437,406.856ZM104.7,356.248c-1.76,2.44-3.936,4.451-5.206,6.478-8,12.763-8.526,16.945-9.254,23.364.032,16.358,6.158,23.764,20.614,28.511,12.739,4.187,14.4-2.96,14.158-6.318-1.307-10.3-.7-22.07,6.163-31.487a7.493,7.493,0,0,0,.435-.611c-3.787-7.134-7.547-14.867-7.688-22.26a9.094,9.094,0,0,1,.112-1.536c.76-5.64,4.326-10.728,8.456-14.47a17.211,17.211,0,0,1,1.8-1.336c5.616-3.677,11.8-3.56,14.243,4.427a12.052,12.052,0,0,1,.379,3.742c-.077,12.8-6.656,22.11-13.579,32.17,1.115,1.536,2.208,2.827,2.221,2.848,0,0,8.9,11.211,9.032,11.366,2.512,2.814,3.718,3.072,4.843-.664.731-6.107.347-17.2-1.973-23.2-.832-2.141,1.384-3.1,3.259-.739,0,0,7.291,7.494,13.3,13.841,8.816-13.7,19.286-25.559,29.81-37.711a38.489,38.489,0,0,0,4.187-5.366c5.934-11.121-4.326-9.078-6.675-8.518-12.83,2.941-27.831,10.6-27.841,10.6-5.35,2.739-.645-12.758-3.5-15.611-1.984-1.987,2.032-5.44,3.579-.56.973,3.078.987,8.419.952,11.723,8.3-3.944,17.036-7.547,26-9.6a21.31,21.31,0,0,1,2.723-.427c9.435-.9,13.049,4.392,7.894,14.062-2.349,4.406-9.47,11.481-12.822,15.353a245.888,245.888,0,0,0-21.252,27.868l-.539.875c4.968,5.432,4.344,4.5,8.355,10.251,4.544,6.5,9.39,12.547,9.579,22.012.307,15.569-12.326,21.9-18.649,21.814-12.489-.176-16.857-14-17.084-19.052-.595-13.23,6.552-23.046,13.7-35.132-3.515-3.787-6.984-7.214-9.939-10.145l.269.832a60.4,60.4,0,0,1,.272,17.009,14.663,14.663,0,0,1-.341,1.619c-1.3,4.928-3.83,8.254-8.4,3.141,0,0-11.723-14.449-12.638-16.294l-.307.424c-5.448,7.955-6.008,19.07-4.808,28.433.472,5.323-.88,14.5-16.977,10.035-16.934-4.7-26.217-18-24.591-34.084.459-4.528,1.5-11.726,13.182-29.228.6-.9,1.355-2.765,2.437-2.494C103.883,352.528,105.7,354.864,104.7,356.248ZM133.29,373.8c6.635-10.63,12-16.4,12.078-29.071a10.835,10.835,0,0,0-.205-2.624c-1.691-7.019-10.065-1.173-11.107-.259-3.16,2.864-6.646,7.222-6.59,11.979C127.186,361.688,130.436,369.011,133.29,373.8Zm33.508,11.5c-1.472,2.31-3.547,5.571-5.982,9.862-4.68,8.246-6.971,13.337-6.547,22.761.221,4.918,3.262,15.1,12.641,15.7,1.123.077,10.6.64,15.563-12.067C185.706,411.731,177.282,397.133,166.8,385.306Zm73.641-13.555a4.05,4.05,0,0,1-.68-2.141c.117-.837.637-2.347,2.267-1.219.192.136,1.373,1.733,1.261,2.36C242.925,372.836,241.445,373.422,240.439,371.75ZM111.054,335.882a5.318,5.318,0,0,1,.973,2.179c.048.9.035,2.368-1.808,1.363,0,0-1.859-1.8-1.872-2.477C108.3,334.708,109.846,334.01,111.054,335.882Z" transform="translate(-86.792 -320.718)" fill="#5f1970" fill-rule="evenodd"/>
  </g>
</svg>
